<?xml version="1.0" encoding="iso-8859-1"?>
<!-- Generator: Adobe Illustrator 19.0.1, SVG Export Plug-In . SVG Version: 6.00 Build 0)  -->
<svg version="1.1" xmlns="http://www.w3.org/2000/svg" xmlns:xlink="http://www.w3.org/1999/xlink" x="0px" y="0px"
	 viewBox="0 0 128 128" style="enable-background:new 0 0 128 128;" xml:space="preserve">
<g id="_x31_6">
	<path id="_x31_6_1_" style="fill-rule:evenodd;clip-rule:evenodd;fill:#171617;" d="M56.433,30.9
		c2.065,0.311,3.786,0.444,5.461,0.357c1.703-0.096,3.428-0.417,5.506-1.017c12.148-3.512,28.195-1.3,38.535,6.137
		c13.25,9.539,16.798,25.773,14.422,41.925c-2.852,19.426-21.197,56.456-45.666,48.02c-2.977-1.556-6.794-3.995-10.913-3.685
		c-2.793,0.21-4.327,0.515-7.917,4.111C29.034,134.68,9.096,96.285,6.831,74.359C5.366,60.208,8.813,46.552,19.619,38.122
		C29.025,30.79,44.949,28.074,56.433,30.9L56.433,30.9z M60.818,28.738c1.236-11.009,5.021-20.287,14.436-27.285
		c4.714-3.499,11.2,0.957,4.44,5.001c-8.161,4.882-15.96,16.285-17.191,22.215C62.021,28.816,61.339,28.839,60.818,28.738
		L60.818,28.738z"/>
</g>
<g id="Layer_1">
</g>
</svg>
