<svg xmlns="http://www.w3.org/2000/svg" viewBox="0 0 32 32"><title>2-User-Woman</title><g id="_2-User-Woman" data-name="2-User-Woman"><path d="M27.3,25l-.81-.3-1-2.07A3,3,0,0,0,27,20V11C27,.13,16.11,0,16,0S5,.13,5,11v9a3,3,0,0,0,1.55,2.67l-1,2.07L4.7,25c-.91.23-4.7,1.37-4.7,4v2a1,1,0,0,0,1,1H31a1,1,0,0,0,1-1V29C32,26.41,28.21,25.28,27.3,25ZM9,11a1,1,0,0,0,1-1v0c1.74-.11,5.12-.54,6.45-2.3A11.81,11.81,0,0,0,22,9.95V10a1,1,0,0,0,1,1v2a1,1,0,0,0-1,1,6,6,0,0,1-3.43,5.41,1,1,0,0,0-.57.9v2.41A2.56,2.56,0,0,1,16,24a2.56,2.56,0,0,1-2-1.28V20.31a1,1,0,0,0-.57-.9A6,6,0,0,1,10,14a1,1,0,0,0-1-1ZM30,30H2V29c0-.78,1.92-1.7,3.24-2l.11,0,1.44-.54.1.05.06-.11,5.66-2.12A4.33,4.33,0,0,0,16,26a4.33,4.33,0,0,0,3.39-1.79l5.66,2.12.06.11.1-.05,1.44.54.11,0c1.33.33,3.24,1.25,3.24,2Z"/></g></svg>